<svg xmlns="http://www.w3.org/2000/svg" viewBox="0 0 250 250"><defs><style>.cls-1{fill:#5D5D5D;}</style></defs><title>k-バツicon</title><g id="細字"><path class="cls-1" d="M191.3,151.43c-3.6,3.42-9.64,3-13.43-1L59.05,25.4c-3.78-4-3.94-10-.35-13.46S68.34,9,72.13,13L191,138C194.73,142,194.89,148,191.3,151.43Z"/><path class="cls-1" d="M58.7,151.43c3.6,3.42,9.64,3,13.43-1L191,25.4c3.78-4,3.94-10,.35-13.46S181.66,9,177.87,13L59.05,138C55.27,142,55.11,148,58.7,151.43Z"/><path class="cls-1" d="M47.4,232.51l-.57,6.6A40.86,40.86,0,0,1,35,240.75q-15.24,0-22.9-8.35A29.05,29.05,0,0,1,4.39,212a30.79,30.79,0,0,1,8.55-21.77q8.55-9.15,23-9.15a32.66,32.66,0,0,1,8.42,1.19l-1.24,7a30.69,30.69,0,0,0-9.09-1.6q-10.71,0-16.26,6.65a24.56,24.56,0,0,0-5.53,16.26,24,24,0,0,0,6.38,16.79q6.38,7,17.63,7A43.84,43.84,0,0,0,47.4,232.51Z"/><path class="cls-1" d="M93.3,233,93,239.56H58.17q.53-11,.53-30.31,0-16.65-.53-27.37h8.24q-.54,8.94-.53,27.37,0,15.15-.49,24.28Q78.68,233.53,93.3,233Z"/><path class="cls-1" d="M152.84,209.83q0,14.31-8.37,22.88t-19.36,8.57a25.51,25.51,0,0,1-18.5-7.86q-8-7.86-8-21.24,0-14.49,8.37-23t19.36-8.49a25.49,25.49,0,0,1,18.5,7.87Q152.84,196.45,152.84,209.83Zm-7.88,1q0-11.43-6-17.7t-13.84-6.27q-7.27,0-12.94,6.6t-5.67,17.64q0,11.46,6,17.74t13.84,6.27q7.28,0,12.92-6.69T145,210.85Z"/><path class="cls-1" d="M199.23,224.63q0,16.38-22.82,16.39a52.46,52.46,0,0,1-14.8-1.91l1.55-7a43.49,43.49,0,0,0,14.14,2.57q15.06,0,15.06-8.51a9.1,9.1,0,0,0-3.9-7.35q-2.61-2-10.28-5.45-8.06-3.58-11.29-6.6a14.61,14.61,0,0,1,.08-21.13q5.1-4.62,14.4-4.61,10.55,0,14.44,1.37l-1.06,7.05a47.19,47.19,0,0,0-14.31-2.13q-11.38,0-11.38,7.62a7.48,7.48,0,0,0,3.27,6.16,59.2,59.2,0,0,0,9.4,4.69q8.28,3.6,12,6.83A15.33,15.33,0,0,1,199.23,224.63Z"/><path class="cls-1" d="M247.91,232.87l-.26,6.69H211.94q.62-13.74.62-30.31,0-15.58-.62-27.37h33.49l-.35,6.6q-12.18-.54-25.83-.54.27,6.87.27,18.57,11.78,0,21-.53v6.6q-9.82-.41-21-.4,0,11.38.39,21.35Q234.63,233.53,247.91,232.87Z"/></g></svg>