<svg xmlns="http://www.w3.org/2000/svg" width="17.138" height="15" viewBox="0 0 17.138 15">
  <path id="heart-regular" d="M15.344,33.06a5.042,5.042,0,0,0-6.775.5,5.038,5.038,0,0,0-6.775-.5,5.065,5.065,0,0,0-.355,7.4L7.31,46.446a1.758,1.758,0,0,0,2.517,0L15.7,40.468A5.068,5.068,0,0,0,15.344,33.06Zm-.79,6.276L8.683,45.318a.138.138,0,0,1-.228,0L2.584,39.336a3.452,3.452,0,0,1,.244-5.044,3.394,3.394,0,0,1,4.569.351l1.172,1.195,1.172-1.195a3.391,3.391,0,0,1,4.569-.355A3.467,3.467,0,0,1,14.554,39.336Z" transform="translate(0 -31.978)" fill="#6e6e6e"/>
</svg>
