<svg id="細字" xmlns="http://www.w3.org/2000/svg" viewBox="0 0 250 250"><defs><style>.cls-1{fill:#5D5D5D;}</style></defs><title>ハンバーガーicon</title><path class="cls-1" d="M250,10a10,10,0,0,1-10,10H10A10,10,0,0,1,0,10H0A10,10,0,0,1,10,0H240a10,10,0,0,1,10,10Z"/><path class="cls-1" d="M250,75.19a10,10,0,0,1-10,10H10a10,10,0,0,1-10-10H0a10,10,0,0,1,10-10H240a10,10,0,0,1,10,10Z"/><path class="cls-1" d="M250.39,140.39a10,10,0,0,1-10,10h-230a10,10,0,0,1-10-10h0a10,10,0,0,1,10-10h230a10,10,0,0,1,10,10Z"/><path class="cls-1" d="M70,241.38H61.38q0-10.17-1.41-29.44t-1.51-23.1H58q-4.56,14.83-11.57,32.21t-7,20.33H33.26q0-3.19-6.53-20.7t-8.26-23.44q-1.74-5.94-2.38-8.4h-.45q-.13,6.25-1.81,25.24t-1.66,27.3H4.32q0-.45,3.1-25.13t3.11-34.31h12q0,5,7.31,25.11t7.3,24.34h.46q0-4.24,8.21-24.41t8.22-25H65.76q0,9.65,2.11,34.15T70,241.38Z"/><path class="cls-1" d="M123.2,234.49l-.28,6.89H86.13q.63-14.15.63-31.22,0-16.08-.63-28.22h34.51l-.37,6.81q-12.55-.56-26.61-.55.27,7.08.27,19.13,12.15,0,21.64-.55v6.8q-10.12-.41-21.64-.41,0,11.73.41,22Q109.51,235.17,123.2,234.49Z"/><path class="cls-1" d="M180.63,241.38h-6.39q0-.76-15-21.86-15.66-22.15-17.85-27.94H141q.81,11,.82,18.85,0,15.34.68,30.95h-7.67q.78-14.83.78-31.22,0-16.12-.78-28.22h8.77q0,1.29,13.78,20.82,14.43,20.55,16.44,26.75h.46q-.78-11.13-.78-18.9,0-16.89-.64-28.67h7.81q-.78,12.1-.78,28.22Q179.85,226.54,180.63,241.38Z"/><path class="cls-1" d="M245.45,181.94q-.18,8.64-.27,16.12t-.09,14q0,30.58-24.15,30.59a29.06,29.06,0,0,1-10.8-1.81,17.34,17.34,0,0,1-7.39-5.52,24.1,24.1,0,0,1-4.25-9.38,58.32,58.32,0,0,1-1.35-13.38q0-6.75-.09-14.36t-.27-16.23h8.67q-.54,17.4-.55,27.26a87,87,0,0,0,.78,12.94,23.26,23.26,0,0,0,2.76,8.33,11.49,11.49,0,0,0,5,4.73,18.33,18.33,0,0,0,7.67,1.39,19.23,19.23,0,0,0,7.94-1.39,11.19,11.19,0,0,0,5-4.61,23.55,23.55,0,0,0,2.74-8.27,85,85,0,0,0,.82-13.21q0-4.85-.16-11.58T237,181.94Z"/></svg>