<svg xmlns="http://www.w3.org/2000/svg" width="11.796" height="11.864" viewBox="0 0 11.796 11.864"><defs><style>.a{fill:#58c6e8;}</style></defs><g transform="translate(0)"><path class="a" d="M19.3,16.316a0,0,0,0,1,0,0V12.259a.229.229,0,0,0-.227-.23H17.032a.229.229,0,0,0-.227.23v4.052a0,0,0,0,1,0,0H12.585a0,0,0,0,1,0,0V10.459a.229.229,0,0,0-.227-.23H11l5.517-5.348a.01.01,0,0,1,.012,0l2.158,2.092a.178.178,0,0,0,.124.055.155.155,0,0,0,.148-.175V4.834a0,0,0,0,1,0,0h1.572a0,0,0,0,1,0,0V8.6a.426.426,0,0,0,.118.28l1.39,1.347H20.766a.229.229,0,0,0-.227.23v5.853a0,0,0,0,1,0,0Z" transform="translate(-10.626 -4.641)"/><path class="a" d="M11.349.229V3.935a.546.546,0,0,0,.157.366l1.22,1.167H11.7a.348.348,0,0,0-.348.348v5.819H10.3V7.64a.348.348,0,0,0-.348-.348H7.863a.348.348,0,0,0-.348.348v3.994H3.408V5.816a.348.348,0,0,0-.348-.348h-1.1L7.341.317l2.143,2.05a.3.3,0,0,0,.206.089.273.273,0,0,0,.266-.291V.229h1.392M11.46,0H9.846a.119.119,0,0,0-.119.119V2.164c0,.04-.015.062-.037.062A.077.077,0,0,1,9.643,2.2L7.427.082a.125.125,0,0,0-.171,0L1.471,5.616c-.047.045-.032.082.033.082H3.06a.119.119,0,0,1,.119.119v5.929a.119.119,0,0,0,.119.119H7.626a.119.119,0,0,0,.119-.119V7.64a.119.119,0,0,1,.119-.119H9.951a.119.119,0,0,1,.119.119v4.1a.119.119,0,0,0,.119.119H11.46a.119.119,0,0,0,.119-.119V5.816A.119.119,0,0,1,11.7,5.7h1.481c.065,0,.08-.037.033-.082l-1.547-1.48a.32.32,0,0,1-.086-.2V.119A.119.119,0,0,0,11.46,0Z" transform="translate(-1.443)"/></g></svg>