<svg id="image_icon" xmlns="http://www.w3.org/2000/svg" width="34.468" height="28" viewBox="0 0 34.468 28">
  <rect id="長方形_22" data-name="長方形 22" width="32.546" height="26.074" transform="translate(0.961 0.961)" fill="none"/>
  <path id="パス_17" data-name="パス 17" d="M47.546,41.908v24.18H16.922V41.908H47.546M48.828,40H15.641a.638.638,0,0,0-.641.636V67.364a.638.638,0,0,0,.641.636H48.828a.638.638,0,0,0,.641-.636V40.636A.638.638,0,0,0,48.828,40Z" transform="translate(-15 -40)" fill="#6e6e6e"/>
  <circle id="楕円形_4" data-name="楕円形 4" cx="2.342" cy="2.342" r="2.342" transform="translate(9.36 6.986)" fill="#6e6e6e"/>
  <path id="パス_18" data-name="パス 18" d="M46.9,113.22c1.506-1.694,4.14-8.283,6.211-8.283s2.071,4.141,3.765,4.141S61.017,99.29,62.9,99.29s7.53,13.93,10.353,13.93Z" transform="translate(-41.813 -91.802)" fill="#6e6e6e"/>
</svg>
