<svg xmlns="http://www.w3.org/2000/svg" width="90" height="70.308" viewBox="0 0 90 70.308">
  <g id="mute_icon" transform="translate(0 0.848)" opacity="0.26">
    <g id="スピーカー" transform="translate(0 1.105)">
      <rect id="長方形_2" data-name="長方形 2" width="12.457" height="33.812" rx="2" transform="translate(0 16.39)" fill="none"/>
      <path id="パス_1" data-name="パス 1" d="M29.389,95.068v30.965a.712.712,0,0,1-.712.712h-8.9a.712.712,0,0,1-.712-.712V95.78a.712.712,0,0,1,.712-.712h9.61m1.068-.356A.712.712,0,0,0,29.745,94H18.712a.712.712,0,0,0-.712.712V127.1a.712.712,0,0,0,.712.712H29.745a.712.712,0,0,0,.712-.712Z" transform="translate(-18 -77.61)" fill="#606060"/>
      <path id="パス_2" data-name="パス 2" d="M107.244,113.868,54.187,98.988a1,1,0,0,1-.687-.9v-31.1a1.021,1.021,0,0,1,.68-.918l52.384-16.007a.495.495,0,0,1,.68.5V112.5" transform="translate(-40.865 -49.268)" fill="none"/>
      <path id="パス_3" data-name="パス 3" d="M106.278,112.494a.644.644,0,0,1-.829.32l-52.762-14.8a1,1,0,0,1-.687-.9V65.219a1.021,1.021,0,0,1,.68-.925l53.452-16.363a.495.495,0,0,1,.68.523v61.959c0,.391-.238.711-.534.711s-.534-.32-.534-.711V49.9a.5.5,0,0,0-.68-.505l-51.317,15.7a1.021,1.021,0,0,0-.68.918v30.3a1,1,0,0,0,.687.9L105.719,111.8C106.1,111.893,106.356,112.213,106.278,112.494Z" transform="translate(-39.899 -47.894)" fill="#606060"/>
      <line id="線_1" data-name="線 1" y2="56.91" transform="translate(77.721 4.665)" fill="#606060"/>
      <path id="パス_4" data-name="パス 4" d="M236.068,117.2c0,.391-.238.711-.534.711s-.534-.32-.534-.711V61.711c0-.391.238-.711.534-.711s.534.32.534.711Z" transform="translate(-157.813 -56.335)" fill="#606060"/>
      <line id="線_2" data-name="線 2" y2="43.029" transform="translate(89.466 11.071)" fill="#606060"/>
      <path id="パス_5" data-name="パス 5" d="M269.068,121.318c0,.391-.238.711-.534.711s-.534-.32-.534-.711V79.711c0-.391.238-.711.534-.711s.534.32.534.711Z" transform="translate(-179.068 -67.929)" fill="#606060"/>
    </g>
    <g id="ペケ" transform="translate(14.395 -0.829)">
      <rect id="長方形_3" data-name="長方形 3" width="1.684" height="97.746" rx="0.842" transform="translate(0 1.173) rotate(-45)" fill="#c46068"/>
      <rect id="長方形_4" data-name="長方形 4" width="97.746" height="1.684" rx="0.842" transform="translate(0.157 69.098) rotate(-45)" fill="#c46068"/>
    </g>
  </g>
</svg>
