<svg xmlns="http://www.w3.org/2000/svg" width="24.321" height="15" viewBox="0 0 24.321 15">
  <path id="retweet-solid" d="M27.365,71.55,23.5,75.416a.922.922,0,0,1-1.3,0L18.329,71.55a.922.922,0,0,1,0-1.3l.416-.416a.922.922,0,0,1,1.322.019l1.552,1.643V64.5h-7.2a.922.922,0,0,1-.652-.27l-.614-.614a.922.922,0,0,1,.652-1.573h9.352a.922.922,0,0,1,.922.922v8.529l1.552-1.643a.922.922,0,0,1,1.322-.019l.416.416a.922.922,0,0,1,0,1.3Zm-10.181.593a.921.921,0,0,0-.652-.27H9.33V64.879l1.552,1.643a.922.922,0,0,0,1.322.019l.416-.416a.922.922,0,0,0,0-1.3L8.753,60.956a.922.922,0,0,0-1.3,0L3.583,64.823a.922.922,0,0,0,0,1.3L4,66.541a.922.922,0,0,0,1.322-.019l1.552-1.643v8.529a.922.922,0,0,0,.922.922h9.352a.922.922,0,0,0,.652-1.573Z" transform="translate(-3.313 -60.686)" fill="#6e6e6e"/>
</svg>
