<svg xmlns="http://www.w3.org/2000/svg" width="24.666" height="17.655" viewBox="0 0 24.666 17.655">
  <g id="speaker_icon" transform="translate(0 0.076)">
    <path id="パス_6" data-name="パス 6" d="M21.093,94.29v8.41a.193.193,0,0,1-.193.193H18.483a.193.193,0,0,1-.193-.193V94.483a.193.193,0,0,1,.193-.193h2.61m.29-.1A.193.193,0,0,0,21.19,94h-3a.193.193,0,0,0-.193.193v8.8a.193.193,0,0,0,.193.193h3a.193.193,0,0,0,.193-.193Z" transform="translate(-18 -89.619)" fill="#00535d"/>
    <path id="パス_7" data-name="パス 7" d="M66.741,65.449a.175.175,0,0,1-.225.087L52.187,61.514A.271.271,0,0,1,52,61.269V52.6a.277.277,0,0,1,.185-.251L66.7,47.9a.134.134,0,0,1,.185.142V64.883c0,.106-.065.193-.145.193s-.145-.087-.145-.193V48.439a.135.135,0,0,0-.185-.137L52.475,52.567a.277.277,0,0,0-.185.249V61.05a.271.271,0,0,0,.187.246l14.113,3.963C66.693,65.285,66.763,65.372,66.741,65.449Z" transform="translate(-48.713 -47.97)" fill="#00535d"/>
    <line id="線_3" data-name="線 3" y2="15.466" transform="translate(21.121 1.191)" fill="#606060"/>
    <path id="パス_8" data-name="パス 8" d="M235.5,76.273a.258.258,0,0,1-.5,0V61.193a.258.258,0,0,1,.5,0Z" transform="translate(-214.024 -59.809)" fill="#00535d"/>
    <line id="線_4" data-name="線 4" y2="11.696" transform="translate(24.311 2.931)" fill="#606060"/>
    <path id="パス_9" data-name="パス 9" d="M268.5,90.5a.258.258,0,0,1-.5,0V79.193a.258.258,0,0,1,.5,0Z" transform="translate(-243.834 -76.069)" fill="#00535d"/>
  </g>
</svg>
